<?xml version="1.0" encoding="utf-8"?>
<!-- Generator: Adobe Illustrator 16.0.0, SVG Export Plug-In . SVG Version: 6.00 Build 0)  -->
<!DOCTYPE svg PUBLIC "-//W3C//DTD SVG 1.1//EN" "http://www.w3.org/Graphics/SVG/1.1/DTD/svg11.dtd">
<svg version="1.1" id="Layer_1" xmlns="http://www.w3.org/2000/svg" xmlns:xlink="http://www.w3.org/1999/xlink" x="0px" y="0px"
	 width="495px" height="181.75px" viewBox="0 0 495 181.75" enable-background="new 0 0 495 181.75" xml:space="preserve">
<g>
	<defs>
		<rect id="SVGID_1_" x="-86.25" y="-72.75" width="1203" height="340"/>
	</defs>
	<clipPath id="SVGID_2_">
		<use xlink:href="#SVGID_1_"  overflow="visible"/>
	</clipPath>
	<path clip-path="url(#SVGID_2_)" d="M57.555,119.225c-5.384-6.27-11.984-9.627-20.08-9.627c-13.177,0-23.353,11.916-23.353,25.055
		c0,14.666,10.027,25.359,24.261,25.359c7.785,0,14.08-3.665,19.172-9.476v17.574c-6.135,3.356-12.284,4.737-19.329,4.737
		c-20.665,0-37.587-16.197-37.587-37.584c0-22.157,16.773-38.501,38.336-38.501c6.296,0,13.196,1.527,18.58,4.736V119.225z"/>
	<rect x="71.324" y="65.158" clip-path="url(#SVGID_2_)" width="13.488" height="105.243"/>
	<path clip-path="url(#SVGID_2_)" d="M171.236,134.808c0,21.539-16.479,38.04-37.445,38.04c-20.979,0-37.455-16.501-37.455-38.04
		c0-21.546,16.476-38.045,37.455-38.045C154.757,96.762,171.236,113.262,171.236,134.808 M109.814,134.808
		c0,13.435,10.641,24.898,23.977,24.898c13.321,0,23.959-11.464,23.959-24.898c0-13.599-10.638-24.908-23.959-24.908
		C120.455,109.899,109.814,121.209,109.814,134.808"/>
	<path clip-path="url(#SVGID_2_)" d="M210.322,115.253c-1.645-3.52-5.1-6.27-8.988-6.27c-3.738,0-7.347,3.057-7.347,7.034
		c0,6.257,8.098,9.008,16.335,12.825c8.237,3.82,16.179,9.018,16.179,20.321c0,13.597-11.081,23.684-24.118,23.684
		c-10.182,0-20.518-5.965-24.262-16.043l11.53-5.351c2.839,5.351,6.283,9.165,12.732,9.165c5.689,0,10.635-3.971,10.635-10.083
		c0-3.82-1.802-5.652-4.946-7.79l-13.18-7.178c-7.786-4.278-13.478-8.251-13.478-18.024c0-11.616,9.288-20.781,20.671-20.781
		c8.532,0,15.428,4.734,19.167,12.521L210.322,115.253z"/>
	<path clip-path="url(#SVGID_2_)" d="M246.414,136.944c0.151,12.22,8.233,23.675,21.125,23.675c10.327,0,15.865-5.345,20.965-13.902
		l11.376,6.577c-6.586,12.366-18.862,19.554-32.496,19.554c-21.419,0-34.451-16.5-34.451-37.584
		c0-22.002,11.535-38.502,34.144-38.502c22.319,0,32.803,16.806,32.803,38.047v2.136H246.414z M286.4,126.554
		c-1.64-10.69-8.534-17.876-19.323-17.876c-10.484,0-18.267,7.641-19.918,17.876H286.4z"/>
	<path clip-path="url(#SVGID_2_)" d="M324.436,110.513h0.462c3.29-8.402,10.181-13.751,19.169-13.751
		c3.895,0,7.788,1.377,11.084,3.516l-6.148,12.526c-2.383-2.141-5.087-2.904-8.237-2.904c-14.525,0-16.33,13.751-16.33,25.364V170.4
		h-13.475V98.902h13.475V110.513z"/>
	<path clip-path="url(#SVGID_2_)" fill="#EC008C" d="M456.004,52.924c-7.748-8.877-19.034-14.466-31.607-14.466
		c-6.408,0-12.485,1.453-17.93,4.055c2.333-14.717,14.852-25.948,29.93-25.948c15.661,0,28.555,12.124,30.141,27.681
		C462.155,45.871,458.453,48.956,456.004,52.924"/>
	<path clip-path="url(#SVGID_2_)" fill="#FBB03F" d="M408.745,121.723c-15.621-6.35-26.663-21.916-26.663-40.107
		c0-17.297,9.983-32.218,24.386-39.103c-0.255,1.62-0.387,3.28-0.387,4.972c0,17.07,13.581,30.923,30.317,30.923
		c6.737,0,12.965-2.246,17.996-6.044c2.245,5.514,6.7,9.862,12.233,11.887c-0.576,9.734-4.312,18.599-10.179,25.537
		c-5.275-4.704-12.177-7.555-19.735-7.555C423.983,102.232,413.104,110.314,408.745,121.723"/>
	<path clip-path="url(#SVGID_2_)" fill="#ED1B34" d="M436.397,78.407c-16.736,0-30.317-13.853-30.317-30.922
		c0-1.693,0.133-3.354,0.388-4.971c5.445-2.602,11.521-4.056,17.93-4.056c12.572,0,23.858,5.59,31.606,14.464
		c-2.022,3.276-3.189,7.152-3.189,11.307c0,2.881,0.562,5.627,1.579,8.133C449.362,76.16,443.134,78.407,436.397,78.407"/>
	<path clip-path="url(#SVGID_2_)" fill="#39B54A" d="M436.713,163.423c-16.569,0-30.006-13.695-30.006-30.597
		c0-3.916,0.721-7.662,2.038-11.105c4.84,1.97,10.123,3.053,15.653,3.053c12.814,0,24.293-5.811,32.049-14.985
		c6.287,5.607,10.257,13.85,10.257,23.038C466.704,149.728,453.276,163.423,436.713,163.423"/>
	<path clip-path="url(#SVGID_2_)" fill="#588944" d="M424.397,124.772c-5.53,0-10.81-1.084-15.653-3.05
		c4.36-11.408,15.239-19.491,27.968-19.491c7.558,0,14.459,2.853,19.735,7.557C448.69,118.962,437.212,124.772,424.397,124.772"/>
	<path clip-path="url(#SVGID_2_)" fill="#00AEEF" d="M384.616,181.454c-5.583,0-10.11-4.612-10.11-10.301s4.527-10.309,10.11-10.309
		c5.578,0,10.097,4.62,10.097,10.309S390.194,181.454,384.616,181.454"/>
	<path clip-path="url(#SVGID_2_)" fill="#662D91" d="M340.365,48.171c-12.909,0-23.37-10.667-23.37-23.829
		c0-13.16,10.461-23.833,23.37-23.833c12.907,0,23.37,10.673,23.37,23.833C363.735,37.504,353.272,48.171,340.365,48.171"/>
	<path clip-path="url(#SVGID_2_)" fill="#00AEEF" d="M473.647,85.488c-2.465,0-4.827-0.437-7.021-1.239
		c0.05-0.872,0.077-1.749,0.077-2.634c0-6.652-1.476-12.952-4.108-18.579c2.611-4.57,4.108-9.884,4.108-15.552
		c0-1.095-0.056-2.174-0.165-3.238c2.218-0.821,4.612-1.268,7.109-1.268c11.516,0,20.846,9.512,20.846,21.25
		C494.494,75.963,485.164,85.488,473.647,85.488"/>
	<path clip-path="url(#SVGID_2_)" fill="#2E3092" d="M462.596,63.035c-1.727-3.69-3.956-7.09-6.591-10.111
		c2.449-3.969,6.151-7.052,10.534-8.678c0.109,1.066,0.165,2.143,0.165,3.238C466.704,53.152,465.207,58.466,462.596,63.035"/>
	<path clip-path="url(#SVGID_2_)" fill="#008059" d="M466.626,84.249c-5.533-2.023-9.988-6.371-12.23-11.887
		c3.314-2.5,6.111-5.676,8.199-9.327c2.633,5.627,4.108,11.929,4.108,18.58C466.703,82.499,466.677,83.379,466.626,84.249"/>
	<path clip-path="url(#SVGID_2_)" fill="#363645" d="M454.394,72.362c-1.016-2.507-1.579-5.253-1.579-8.134
		c0-4.155,1.168-8.03,3.19-11.306c2.635,3.022,4.864,6.422,6.591,10.114C460.508,66.686,457.71,69.86,454.394,72.362"/>
</g>
</svg>
